<?xml version="1.0" encoding="UTF-8"?>
<svg id="Layer_1" data-name="Layer 1" xmlns="http://www.w3.org/2000/svg" viewBox="0 0 426.8 512.1">
  <defs>
    <style>
      .cls-1 {
        fill: #7a8288;
      }
    </style>
  </defs>
  <path class="cls-1" d="M213.8,256c-70.6,0-128-57.4-128-128S143.3,0,213.8,0s128,57.4,128,128-57.4,128-128,128Zm42.3,131.9v-89.3h-107.1v91.2c12.7,7.4,21.3,21,21.3,36.8,0,23.6-19.1,42.7-42.7,42.7s-42.7-19.1-42.7-42.7c0-15.7,8.6-29.4,21.3-36.8v-91.2c-58.6,.3-106.2,48-106.2,106.6v106.8H213.4v-64c0-27.8,17.9-51.2,42.7-60.1Zm64-89.2h-21.3v89.3c24.8,8.8,42.7,32.3,42.7,60.1v64h85.3v-106.8c-.1-58.8-47.9-106.6-106.7-106.6Zm-42.7,128c-11.8,0-21.3,9.6-21.3,21.3v64h42.7v-64c-.1-11.8-9.6-21.3-21.4-21.3Z"/>
</svg>