<?xml version="1.0" encoding="utf-8"?>
<!-- Generator: Adobe Illustrator 26.5.0, SVG Export Plug-In . SVG Version: 6.00 Build 0)  -->
<svg version="1.1" id="Layer_1" xmlns="http://www.w3.org/2000/svg" xmlns:xlink="http://www.w3.org/1999/xlink" x="0px" y="0px"
	 viewBox="0 0 512 512" style="enable-background:new 0 0 512 512;" xml:space="preserve">
<style type="text/css">
	.st0{fill:#4199FD;}
</style>
<path class="st0" d="M512,202.7c0.1-41.2-33.2-74.8-74.4-74.9s-74.8,33.2-74.9,74.4c-0.1,28.9,16.5,55.3,42.7,67.7v71.5
	c0,58.9-47.8,106.7-106.7,106.7C239.8,448,192,400.2,192,341.3v-3.2c74.4-15.3,127.9-80.8,128-156.8V74.7C320,33.4,286.6,0,245.3,0
	H192v64h53.3c5.9,0,10.7,4.8,10.7,10.7v106.7c0,53-43,96-96,96s-96-43-96-96V74.7C64,68.8,68.8,64,74.7,64H128V0H74.7
	C33.4,0,0,33.4,0,74.7v106.7c0.1,76,53.6,141.5,128,156.8v3.2c0,94.3,76.4,170.7,170.7,170.7s170.7-76.4,170.7-170.7v-71.5
	C495.3,257.6,511.9,231.4,512,202.7z"/>
</svg>
