<?xml version="1.0" encoding="utf-8"?>
<!-- Generator: Adobe Illustrator 26.5.0, SVG Export Plug-In . SVG Version: 6.00 Build 0)  -->
<svg version="1.1" id="Layer_1" xmlns="http://www.w3.org/2000/svg" xmlns:xlink="http://www.w3.org/1999/xlink" x="0px" y="0px"
	 viewBox="0 0 512 512" style="enable-background:new 0 0 512 512;" xml:space="preserve">
<style type="text/css">
	.st0{fill:#4E9EEA;}
</style>
<path class="st0" d="M256.4,256c-70.6,0-128-57.4-128-128S185.9,0,256.4,0s128,57.4,128,128S327,256,256.4,256z M298.7,387.9v-89.3
	H191.6v91.2c12.7,7.4,21.3,21,21.3,36.8c0,23.6-19.1,42.7-42.7,42.7s-42.7-19.1-42.7-42.7c0-15.7,8.6-29.4,21.3-36.8v-91.2
	c-58.6,0.3-106.2,48-106.2,106.6V512H256v-64C256,420.2,273.9,396.8,298.7,387.9z M362.7,298.7h-21.3v89.3
	c24.8,8.8,42.7,32.3,42.7,60.1v64h85.3V405.3C469.3,346.5,421.5,298.7,362.7,298.7z M320,426.7c-11.8,0-21.3,9.6-21.3,21.3v64h42.7
	v-64C341.3,436.2,331.8,426.7,320,426.7z"/>
</svg>
