<?xml version="1.0" encoding="utf-8"?>
<!-- Generator: Adobe Illustrator 26.5.0, SVG Export Plug-In . SVG Version: 6.00 Build 0)  -->
<svg version="1.1" id="Layer_1" xmlns="http://www.w3.org/2000/svg" xmlns:xlink="http://www.w3.org/1999/xlink" x="0px" y="0px"
	 viewBox="0 0 24 24" style="enable-background:new 0 0 24 24;" xml:space="preserve">
<style type="text/css">
	.st0{fill:#7A8288;}
</style>
<path class="st0" d="M17.9,7c-0.5,2.8-2.9,5-5.9,5S6.6,9.8,6.1,7H17.9L17.9,7z M17.9,5c-0.2-1-0.6-1.9-1.2-2.6L12.9,5H17.9z M9.5,5
	l5.8-4c-0.9-0.6-2.1-1-3.3-1C9,0,6.6,2.2,6.1,5C6.1,5,9.5,5,9.5,5z M16.5,14h-4.4l1.6,6H17v4h4v-5.5C21,16,19,14,16.5,14z M7.5,14
	h2.4l2.1,8h3v2H6c-1.7,0-3-1.3-3-3v-2.5C3,16,5,14,7.5,14z"/>
</svg>
