<?xml version="1.0" encoding="utf-8"?>
<!-- Generator: Adobe Illustrator 26.5.0, SVG Export Plug-In . SVG Version: 6.00 Build 0)  -->
<svg version="1.1" id="Layer_1" xmlns="http://www.w3.org/2000/svg" xmlns:xlink="http://www.w3.org/1999/xlink" x="0px" y="0px"
	 viewBox="0 0 512 512" style="enable-background:new 0 0 512 512;" xml:space="preserve">
<style type="text/css">
	.st0{fill:#7A8288;}
</style>
<path class="st0" d="M405.2,384c-29.4,0-53.3-23.9-53.3-53.3c0-29.4,23.9-53.3,53.3-53.3s53.3,23.9,53.3,53.3
	C458.5,360.1,434.6,384,405.2,384z M490.5,512H319.9c-6.6,0-12.8-3.1-16.9-8.3c-4-5.2-5.5-12-3.8-18.4c11.9-46.4,56.5-80,105.9-80
	s94,33.6,105.9,80c1.6,6.4,0.2,13.2-3.8,18.4C503.3,508.9,497.1,512,490.5,512L490.5,512z M258,474.7c9.8-38,35.3-69.6,68.4-89.5
	c-10.8-15.5-17.1-34.3-17.1-54.5c0-28.3,12.5-53.5,32-71v-153C341.2,47.7,293.5,0,234.6,0H106.7C47.9,0,0.2,47.7,0.2,106.6v298.7
	C0.2,464.2,47.9,512,106.8,512h127.8c8.4,0,16.6-1.2,24.5-3.1C255.8,497.8,255.1,486,258,474.7L258,474.7z M128.1,405.3h-21.3
	c-11.8,0-21.3-9.6-21.3-21.3s9.5-21.3,21.3-21.3h21.3c11.8,0,21.3,9.6,21.3,21.3S139.8,405.3,128.1,405.3z M128.1,320h-21.3
	c-11.8,0-21.3-9.6-21.3-21.3s9.5-21.3,21.3-21.3h21.3c11.8,0,21.3,9.6,21.3,21.3S139.8,320,128.1,320z M170.7,213.3
	c-11.8,0-21.3-9.6-21.3-21.3v-21.3h-21.3c-11.8,0-21.3-9.6-21.3-21.3s9.5-21.3,21.3-21.3h21.3v-21.3c0-11.8,9.5-21.3,21.3-21.3
	s21.3,9.6,21.3,21.3V128h21.3c11.8,0,21.3,9.6,21.3,21.3s-9.5,21.3-21.3,21.3H192V192C192,203.8,182.5,213.3,170.7,213.3z
	 M234.7,405.3h-21.3c-11.8,0-21.3-9.6-21.3-21.3s9.5-21.3,21.3-21.3h21.3c11.8,0,21.3,9.6,21.3,21.3S246.4,405.3,234.7,405.3z
	 M234.7,320h-21.3c-11.8,0-21.3-9.6-21.3-21.3s9.5-21.3,21.3-21.3h21.3c11.8,0,21.3,9.6,21.3,21.3S246.4,320,234.7,320z"/>
</svg>
