<?xml version="1.0" encoding="utf-8"?>
<!-- Generator: Adobe Illustrator 26.5.0, SVG Export Plug-In . SVG Version: 6.00 Build 0)  -->
<svg version="1.1" id="Layer_1" xmlns="http://www.w3.org/2000/svg" xmlns:xlink="http://www.w3.org/1999/xlink" x="0px" y="0px"
	 viewBox="0 0 512 512" style="enable-background:new 0 0 512 512;" xml:space="preserve">
<style type="text/css">
	.st0{fill:#1EC0F5;}
</style>
<path class="st0" d="M355.5,42.7C343.4,17.5,317.7,0,288,0h-64c-29.7,0-55.4,17.5-67.5,42.7H42.7v394.7c0,41.2,33.5,74.7,74.7,74.7
	h277.3c41.2,0,74.7-33.5,74.7-74.7V42.7H355.5z M405.3,437.3c0,5.9-4.8,10.7-10.7,10.7H117.3c-5.9,0-10.7-4.8-10.7-10.7V106.7h106.7
	v-32c0-5.9,4.8-10.7,10.7-10.7h64c5.9,0,10.7,4.8,10.7,10.7v32h106.7v330.6H405.3z M256,170.7c29.5,0,53.3,23.9,53.3,53.3
	s-23.9,53.3-53.3,53.3c-29.5,0-53.3-23.9-53.3-53.3S226.5,170.7,256,170.7z M298.7,298.7c35.3,0,64,28.7,64,64v42.7H149.3v-42.7
	c0-35.3,28.7-64,64-64H298.7z"/>
</svg>
